<?xml version="1.0" encoding="UTF-8"?>
<svg id="_1-Mail" data-name=" 1-Mail" xmlns="http://www.w3.org/2000/svg" version="1.1" viewBox="0 0 32 32">
  <defs>
    <style>
      .cls-1 {
        fill: #fff;
        stroke-width: 0px;
      }
    </style>
  </defs>
  <path class="cls-1" d="M28,28H4c-2.2,0-4-1.8-4-4V8c0-2.2,1.8-4,4-4h24c2.2,0,4,1.8,4,4v16c0,2.2-1.8,4-4,4ZM4,6c-1.1,0-2,.9-2,2v16c0,1.1.9,2,2,2h24c1.1,0,2-.9,2-2V8c0-1.1-.9-2-2-2H4Z"/>
  <path class="cls-1" d="M16,18c-.2,0-.4,0-.6-.2L1.4,6.8c-.4-.3-.5-1-.2-1.4.3-.4,1-.5,1.4-.2,0,0,0,0,0,0l13.4,10.5,13.4-10.5c.4-.3,1.1-.3,1.4.1.3.4.3,1.1-.1,1.4,0,0,0,0,0,0l-14,11c-.2.1-.4.2-.6.2Z"/>
  <path class="cls-1" d="M2,27c-.6,0-1-.4-1-1,0-.3.1-.5.3-.7l11-11c.4-.4,1-.4,1.4,0,.4.4.4,1,0,1.4L2.7,26.7c-.2.2-.4.3-.7.3Z"/>
  <path class="cls-1" d="M30,27c-.3,0-.5-.1-.7-.3l-11-11c-.4-.4-.4-1,0-1.4.4-.4,1-.4,1.4,0l11,11c.4.4.4,1,0,1.4-.2.2-.4.3-.7.3Z"/>
</svg>