<?xml version="1.0" encoding="UTF-8"?>
<svg id="Phone-14" xmlns="http://www.w3.org/2000/svg" version="1.1" viewBox="0 0 28.3 28.3">
  <defs>
    <style>
      .cls-1 {
        fill: #fff;
        stroke-width: 0px;
      }
    </style>
  </defs>
  <path class="cls-1" d="M27.7,20.4l-4.2-4.2c-.4-.4-.9-.6-1.4-.6h0c-.5,0-1,.2-1.4.6l-2.8,2.8-8.5-8.5,2.8-2.8c.8-.8.8-2.1,0-2.8L7.9.6c-.4-.4-.9-.6-1.4-.6h0c-.5,0-1,.2-1.4.6L.9,4.8c-.1.1-1.2,1.3-.7,4,.6,3.1,3.2,7,7.8,11.6,6.5,6.5,10.6,7.9,13,7.9s2.4-.7,2.6-.9l4.2-4.2c.4-.4.6-.9.6-1.4,0-.5-.2-1-.6-1.4ZM22.1,26s-3.4,2.2-12.7-7.1C-.2,9.5,2.3,6.2,2.3,6.2L6.5,2l4.2,4.2-3.5,3.5c-.4.4-.4,1,0,1.4l9.9,9.9c.4.4,1,.4,1.4,0l3.5-3.5,4.2,4.2-4.2,4.2Z"/>
</svg>